<?xml version="1.0" encoding="utf-8"?>
<!-- Generator: Adobe Illustrator 16.0.0, SVG Export Plug-In . SVG Version: 6.00 Build 0)  -->
<!DOCTYPE svg PUBLIC "-//W3C//DTD SVG 1.1//EN" "http://www.w3.org/Graphics/SVG/1.1/DTD/svg11.dtd">
<svg version="1.1" xmlns="http://www.w3.org/2000/svg" xmlns:xlink="http://www.w3.org/1999/xlink" x="0px" y="0px" width="471.5px"
	 height="180px" viewBox="0 0 471.5 180" enable-background="new 0 0 471.5 180" xml:space="preserve">
<g id="Layer_5" display="none">
	
		<rect x="106.5" y="102.167" display="inline" fill="#0A0AEF" stroke="#000000" stroke-width="5" stroke-miterlimit="10" width="263" height="58"/>
</g>
<g id="Layer_1">
	<path fill="none" stroke="#000000" stroke-width="5" stroke-miterlimit="10" d="M302,28.042l44,0.094c0,0,14.333,0.531,17,3.031
		c2.325,2.179,69.61,62.794,81.75,81.75c2.221,3.469,2.5,13.188-0.422,15.343C439.125,131.167,33,130.703,33,130.703"/>
	<rect x="36.5" y="52.75" fill="none" width="278.434" height="70.5"/>
	<text transform="matrix(1 0 0 1 36.5 94.3301)"><tspan x="0" y="0" fill="#145C97" font-family="'Avenir-Black'" font-size="55">T</tspan><tspan x="31.569" y="0" font-family="'Avenir-Black'" font-size="55">idebanan</tspan></text>
	<path fill="#111111" d="M186,206.667"/>
	<path fill="#111111" d="M319,51.667h31.703c0,0,0.698,0.134,1.188,0.578c5.741,5.205,42.14,38.505,42.609,40.672
		c0.562,2.594-1.328,4.484-3,4.75c-0.997,0.158-54.5,0-54.5,0"/>
</g>
<g id="Layer_3">
</g>
<g id="Layer_2">
	<circle fill="#FFFFFF" stroke="#000000" stroke-width="5" stroke-miterlimit="10" cx="35" cy="130" r="9.333"/>
	<circle fill="#FFFFFF" stroke="#000000" stroke-width="5" stroke-miterlimit="10" cx="96" cy="130" r="9.333"/>
</g>
<g id="Layer_4">
	<path fill="none" stroke="#FFFFFF" stroke-width="2" stroke-miterlimit="10" d="M134,133.315c0-1.678,0-3.358,0-5.036"/>
	<path fill="none" stroke="#FFFFFF" stroke-width="2" stroke-miterlimit="10" d="M164.281,133.149c0-1.671,0-3.343,0-5.014"/>
	<path fill="none" stroke="#FFFFFF" stroke-width="2" stroke-miterlimit="10" d="M224,133.168c0-1.595,0-3.463,0-5.058"/>
	<path fill="none" stroke="#FFFFFF" stroke-width="2" stroke-miterlimit="10" d="M254,133.021c0-1.601,0-3.395,0-4.995"/>
	<path fill="none" stroke="#FFFFFF" stroke-width="2" stroke-miterlimit="10" d="M285,132.895c0-1.596,0-3.429,0-5.024"/>
	<path fill="none" stroke="#FFFFFF" stroke-width="2" stroke-miterlimit="10" d="M194,133.189c0-0.91,0-2.713,0-5.079"/>
</g>
</svg>
