<?xml version="1.0" encoding="utf-8"?>
<!-- Generator: Adobe Illustrator 16.0.0, SVG Export Plug-In . SVG Version: 6.00 Build 0)  -->
<!DOCTYPE svg PUBLIC "-//W3C//DTD SVG 1.1//EN" "http://www.w3.org/Graphics/SVG/1.1/DTD/svg11.dtd">
<svg version="1.1" xmlns="http://www.w3.org/2000/svg" xmlns:xlink="http://www.w3.org/1999/xlink" x="0px" y="0px"
	 width="443.868px" height="180px" viewBox="0 0 443.868 180" enable-background="new 0 0 443.868 180" xml:space="preserve">
<g id="Layer_1">
	<path fill="#FFFFFF" stroke="#000000" stroke-width="5" stroke-miterlimit="10" d="M281.868,28.042l44,0.094
		c0,0,14.333,0.531,17,3.031c2.325,2.179,69.61,62.794,81.75,81.75c2.221,3.469,2.5,13.188-0.422,15.343
		c-5.203,2.907-411.328,2.443-411.328,2.443"/>
	<rect x="16.368" y="52.75" fill="none" width="278.434" height="70.5"/>
	<text transform="matrix(1 0 0 1 16.3682 94.3301)"><tspan x="0" y="0" fill="#145C97" font-family="'Avenir-Black'" font-size="55">T</tspan><tspan x="31.569" y="0" font-family="'Avenir-Black'" font-size="55">idebanan</tspan></text>
	<path fill="#111111" d="M165.868,206.667"/>
	<path fill="#111111" d="M298.868,51.667h31.703c0,0,0.698,0.134,1.188,0.578c5.741,5.205,42.14,38.505,42.609,40.672
		c0.562,2.594-1.328,4.484-3,4.75c-0.997,0.158-54.5,0-54.5,0"/>
</g>
<g id="Layer_3">
</g>
<g id="Layer_2">
	<circle fill="#FFFFFF" stroke="#000000" stroke-width="5" stroke-miterlimit="10" cx="14.868" cy="130" r="9.333"/>
	<circle fill="#FFFFFF" stroke="#000000" stroke-width="5" stroke-miterlimit="10" cx="75.868" cy="130" r="9.333"/>
</g>
</svg>
